<?xml version="1.0" encoding="UTF-8"?>
<svg width="94px" height="19px" viewBox="0 0 94 19" version="1.1" xmlns="http://www.w3.org/2000/svg" xmlns:xlink="http://www.w3.org/1999/xlink">
    <title>Group 10</title>
    <g id="Page-1" stroke="none" stroke-width="1" fill="none" fill-rule="evenodd">
        <g id="12.9″-iPad-Pro-Copy-7" transform="translate(-29.000000, -24.000000)">
            <g id="Group-10" transform="translate(29.960000, 24.000000)">
                <g id="Group-7" transform="translate(60.040000, 0.000000)" fill="#E84A29">
                    <path d="M0.6409713,-2.58960077e-17 L25.9493157,2.84856085e-16 C28.4009922,-1.65509588e-16 29.2900294,0.255270431 30.1863257,0.734614935 C31.082622,1.21395944 31.7860406,1.91737802 32.2653851,2.81367432 C32.7447296,3.70997061 33,4.59900777 33,7.0506843 L33,11.9493157 C33,14.4009922 32.7447296,15.2900294 32.2653851,16.1863257 C31.7860406,17.082622 31.082622,17.7860406 30.1863257,18.2653851 C29.2900294,18.7447296 28.4009922,19 25.9493157,19 L7.0506843,19 C4.59900777,19 3.70997061,18.7447296 2.81367432,18.2653851 C1.91737802,17.7860406 1.21395944,17.082622 0.734614935,16.1863257 C0.255270431,15.2900294 -4.16557024e-16,14.4009922 7.16930083e-16,11.9493157 L1.72640051e-17,0.6409713 C-1.00308841e-17,0.418091615 0.0232064028,0.337270056 0.0667831759,0.255788574 C0.110359949,0.174307093 0.174307093,0.110359949 0.255788574,0.0667831759 C0.337270056,0.0232064028 0.418091615,1.50463262e-17 0.6409713,-2.58960077e-17 Z" id="Rectangle" opacity="0.151091803"></path>
                    <path d="M7.046875,15.1333008 C7.60970052,15.1333008 8.05721029,15.0095215 8.3894043,14.7619629 C8.72159831,14.5144043 8.95963542,14.1441243 9.10351562,13.651123 C9.24739583,13.1581217 9.31933594,12.5455729 9.31933594,11.8134766 L9.31933594,11.8134766 L9.31933594,10.4423828 L7.86572266,10.4423828 L7.86572266,11.8325195 C7.86572266,12.5519206 7.81176758,13.0713704 7.70385742,13.3908691 C7.59594727,13.7103678 7.37906901,13.8701172 7.05322266,13.8701172 C6.83317057,13.8701172 6.66389974,13.8013509 6.54541016,13.6638184 C6.42692057,13.5262858 6.34440104,13.3083496 6.29785156,13.0100098 C6.25130208,12.7116699 6.22802734,12.3234049 6.22802734,11.8452148 L6.22802734,11.8452148 L6.22802734,6.84960938 C6.22802734,6.24446615 6.28621419,5.78108724 6.40258789,5.45947266 C6.51896159,5.13785807 6.74853516,4.97705078 7.09130859,4.97705078 C7.41292318,4.97705078 7.62239583,5.13151042 7.71972656,5.44042969 C7.81705729,5.74934896 7.86572266,6.22119141 7.86572266,6.85595703 L7.86572266,6.85595703 L7.86572266,8.17626953 L9.30029297,8.17626953 L9.30029297,6.81152344 C9.30029297,6.34602865 9.26538086,5.92285156 9.19555664,5.54199219 C9.12573242,5.16113281 9.00724284,4.83317057 8.84008789,4.55810547 C8.67293294,4.28304036 8.4465332,4.07250977 8.16088867,3.92651367 C7.87524414,3.78051758 7.51871745,3.70751953 7.09130859,3.70751953 C6.63004557,3.70751953 6.24812826,3.78686523 5.94555664,3.94555664 C5.64298503,4.10424805 5.40388997,4.33170573 5.22827148,4.62792969 C5.05265299,4.92415365 4.9288737,5.27644857 4.85693359,5.68481445 C4.78499349,6.09318034 4.74902344,6.54915365 4.74902344,7.05273438 L4.74902344,7.05273438 L4.74902344,11.7944336 C4.74902344,12.5053711 4.8273112,13.1105143 4.98388672,13.6098633 C5.14046224,14.1092122 5.38802083,14.4879557 5.7265625,14.7460938 C6.06510417,15.0042318 6.50520833,15.1333008 7.046875,15.1333008 Z M12.7170232,15 L12.7170232,9.73144531 L14.3991521,9.73144531 L14.3991521,15 L15.8718083,15 L15.8718083,3.828125 L14.3991521,3.828125 L14.3991521,8.5 L12.7170232,8.5 L12.7170232,3.828125 L11.2443669,3.828125 L11.2443669,15 L12.7170232,15 Z M18.8256893,15 L19.0986385,12.9243164 L21.028326,12.9243164 L21.3266658,15 L22.7104549,15 L20.9267635,3.828125 L19.0669002,3.828125 L17.4165096,15 L18.8256893,15 Z M20.8569393,11.7373047 L19.2509822,11.7373047 L20.012701,5.95458984 L20.031744,5.95458984 L20.8569393,11.7373047 Z M26.1023195,15 L26.1023195,5.07861328 L27.2956788,5.07861328 L27.2956788,3.828125 L23.3664796,3.828125 L23.3664796,5.07861328 L24.6360109,5.07861328 L24.6360109,15 L26.1023195,15 Z" id="CHAT" fill-rule="nonzero"></path>
                </g>
                <path d="M13.944,18 L13.944,13.224 C12.056,13.32 10.648,13.376 9.72,13.392 L9.72,13.392 L9.72,5.184 C10.632,5.2 12.04,5.256 13.944,5.352 L13.944,5.352 L13.944,0.576 L1.0658141e-14,0.576 L1.0658141e-14,5.352 C1.84,5.256 3.24,5.2 4.2,5.184 L4.2,5.184 L4.2,13.392 C3.24,13.376 1.84,13.32 1.0658141e-14,13.224 L1.0658141e-14,13.224 L1.0658141e-14,18 L13.944,18 Z M22.6708571,18 L22.6708571,12.432 L26.1988571,12.432 C27.7188571,14.832 28.8308571,16.688 29.5348571,18 L29.5348571,18 L36.0628571,18 L32.1748571,12.6 C32.0948571,12.456 31.9588571,12.256 31.7668571,12 C33.4148571,11.568 34.5788571,10.872 35.2588571,9.912 C35.9388571,8.952 36.2788571,7.776 36.2788571,6.384 C36.2788571,4.608 35.6388571,3.2 34.3588571,2.16 C33.0788571,1.12 30.8228571,0.6 27.5908571,0.6 L27.5908571,0.6 L22.6708571,0.6 L22.6708571,0.576 L17.0068571,0.576 C17.1348571,3.68 17.1988571,6.584 17.1988571,9.288 C17.1988571,11.992 17.1348571,14.896 17.0068571,18 L17.0068571,18 L22.6708571,18 Z M26.2439405,7.94308333 L22.6708571,7.944 L22.6708571,5.208 L25.9108571,5.208 C27.2868571,5.208 28.3268571,5.248 29.0308571,5.328 C29.7348571,5.408 30.2148571,5.544 30.4708571,5.736 C30.7268571,5.928 30.8548571,6.2 30.8548571,6.552 C30.8548571,6.92 30.7188571,7.2 30.4468571,7.392 C30.1748571,7.584 29.6908571,7.724 28.9948571,7.812 C28.2988571,7.9 27.2708571,7.944 25.9108571,7.944 L26.2439405,7.94308333 Z M47.4487118,18.24 C49.6567118,18.24 51.6967118,17.856 53.5687118,17.088 C55.4407118,16.32 56.7767118,14.968 57.5767118,13.032 C55.5287118,12.152 53.8487118,11.36 52.5367118,10.656 C52.1687118,11.616 51.5927118,12.316 50.8087118,12.756 C50.0247118,13.196 48.9687118,13.416 47.6407118,13.416 C45.9767118,13.416 44.7407118,13.012 43.9327118,12.204 C43.1247118,11.396 42.7207118,10.352 42.7207118,9.072 C42.7207118,7.888 43.0967118,6.892 43.8487118,6.084 C44.6007118,5.276 45.7447118,4.872 47.2807118,4.872 C48.3207118,4.872 49.3407118,5.088 50.3407118,5.52 C51.3407118,5.952 52.0727118,6.616 52.5367118,7.512 C54.4727118,6.52 56.1607118,5.776 57.6007118,5.28 C55.8887118,1.808 52.5047118,0.072 47.4487118,0.072 C43.8327118,0.072 41.1687118,0.904 39.4567118,2.568 C37.7447118,4.232 36.8887118,6.496 36.8887118,9.36 C36.8887118,12.208 37.7447118,14.4 39.4567118,15.936 C41.1687118,17.472 43.8327118,18.24 47.4487118,18.24 Z" id="IRC" fill="#130502" fill-rule="nonzero"></path>
            </g>
        </g>
    </g>
</svg>